<svg width="57" height="57" viewBox="0 0 205 213" fill="none" xmlns="http://www.w3.org/2000/svg">
<path d="M124.09 56.0676L147.366 70.5311L85.1047 147.439L69.1336 136.771L124.09 56.0676Z" fill="url(#paint0_linear)"/>
<path d="M159.517 29.6002C160.229 29.2899 161.016 29.8175 160.947 30.5588L154.617 98.5296C154.547 99.2824 153.649 99.6915 153.006 99.2637L93.7477 59.8689C93.1013 59.4392 93.2028 58.4926 93.9292 58.1761L159.517 29.6002Z" fill="#4DA5EE"/>
<path d="M153.754 39.0171C154.474 38.7034 155.266 39.2452 155.183 39.9933L149.821 87.7555C149.738 88.4975 148.853 88.894 148.215 88.4744L106.713 61.1422C106.063 60.7142 106.162 59.7645 106.89 59.4471L153.754 39.0171Z" fill="#4DA5EE"/>
<mask id="path-4-inside-1" fill="white">
<path d="M191.775 110.165C191.775 126.447 187.343 142.422 178.953 156.376C170.563 170.33 158.533 181.737 144.152 189.372C129.772 197.008 113.584 200.585 97.325 199.719C81.066 198.854 65.3495 193.578 51.8613 184.458C38.373 175.338 27.6221 162.718 20.7617 147.952C13.9012 133.186 11.1901 116.831 12.9192 100.641C14.6484 84.4509 20.7524 69.0371 30.5766 56.0529C40.4008 43.0687 53.5745 33.004 68.6845 26.9385L87.0718 72.7435C80.2779 75.4708 74.3546 79.9962 69.9373 85.8343C65.52 91.6724 62.7754 98.603 61.998 105.882C61.2205 113.162 62.4395 120.516 65.5242 127.155C68.6089 133.795 73.4428 139.469 79.5076 143.569C85.5723 147.67 92.639 150.042 99.9495 150.431C107.26 150.821 114.539 149.212 121.005 145.779C127.471 142.346 132.88 137.217 136.652 130.943C140.424 124.668 142.417 117.486 142.417 110.165L191.775 110.165Z"/>
</mask>
<path d="M191.775 110.165C191.775 126.447 187.343 142.422 178.953 156.376C170.563 170.33 158.533 181.737 144.152 189.372C129.772 197.008 113.584 200.585 97.325 199.719C81.066 198.854 65.3495 193.578 51.8613 184.458C38.373 175.338 27.6221 162.718 20.7617 147.952C13.9012 133.186 11.1901 116.831 12.9192 100.641C14.6484 84.4509 20.7524 69.0371 30.5766 56.0529C40.4008 43.0687 53.5745 33.004 68.6845 26.9385L87.0718 72.7435C80.2779 75.4708 74.3546 79.9962 69.9373 85.8343C65.52 91.6724 62.7754 98.603 61.998 105.882C61.2205 113.162 62.4395 120.516 65.5242 127.155C68.6089 133.795 73.4428 139.469 79.5076 143.569C85.5723 147.67 92.639 150.042 99.9495 150.431C107.26 150.821 114.539 149.212 121.005 145.779C127.471 142.346 132.88 137.217 136.652 130.943C140.424 124.668 142.417 117.486 142.417 110.165L191.775 110.165Z" fill="#8D8D8D" stroke="#E4E4E4" stroke-width="26" mask="url(#path-4-inside-1)"/>
<defs>
<linearGradient id="paint0_linear" x1="135.996" y1="62.9366" x2="81.2641" y2="144.873" gradientUnits="userSpaceOnUse">
<stop stop-color="#919191"/>
<stop offset="0.296875" stop-color="#4DA5EE"/>
</linearGradient>
</defs>
</svg>
