<svg width="50" height="50" viewBox="0 0 196 196" fill="none" xmlns="http://www.w3.org/2000/svg">
<circle cx="98" cy="98" r="79.5" fill="#CDD1DC" stroke="#919191" stroke-width="13"/>
<path d="M98.5384 73.7187L119.339 86.5734L59.8727 160.483L45.6245 150.966L98.5384 73.7187Z" fill="#919191"/>
<path d="M131.411 47.6739C132.123 47.3636 132.91 47.8912 132.841 48.6325L126.783 113.675C126.713 114.428 125.815 114.837 125.172 114.41L68.4662 76.7117C67.8199 76.282 67.9214 75.3354 68.6478 75.0189L131.411 47.6739Z" fill="#919191"/>
<path d="M95.91 87.7339L105.195 93.9361L59.4561 155.725L50.1711 149.523L95.91 87.7339Z" fill="white"/>
<path d="M95.91 87.7339L105.195 93.9361L59.4561 155.725L50.1711 149.523L95.91 87.7339Z" fill="url(#paint0_linear)"/>
<path d="M125.883 56.705C126.602 56.3913 127.395 56.9331 127.311 57.6812L122.186 103.346C122.102 104.088 121.217 104.484 120.579 104.065L80.8995 77.9329C80.2496 77.5049 80.3491 76.5552 81.0772 76.2378L125.883 56.705Z" fill="#E7EA5D"/>
<defs>
<linearGradient id="paint0_linear" x1="100.553" y1="90.835" x2="57.9011" y2="154.687" gradientUnits="userSpaceOnUse">
<stop stop-color="#DCDF51"/>
<stop offset="1" stop-color="#FA5859"/>
</linearGradient>
</defs>
</svg>
