<svg width="55" height="55" viewBox="0 0 114 118" fill="none" xmlns="http://www.w3.org/2000/svg">
<mask id="path-1-inside-1" fill="white">
<path d="M105.886 60.8258C105.886 69.8156 103.438 78.6358 98.8059 86.3404C94.1736 94.0449 87.5313 100.343 79.5913 104.559C71.6514 108.775 62.7135 110.75 53.7364 110.272C44.7593 109.794 36.0816 106.881 28.6343 101.846C21.187 96.8102 15.2511 89.8423 11.4632 81.6894C7.67534 73.5366 6.17846 64.5063 7.13316 55.5673C8.08785 46.6283 11.4581 38.1178 16.8824 30.9488C22.3066 23.7798 29.5803 18.2228 37.923 14.8738L48.0753 40.1643C44.3241 41.6701 41.0536 44.1687 38.6147 47.3921C36.1758 50.6155 34.6604 54.4421 34.2312 58.4614C33.8019 62.4807 34.4749 66.541 36.1781 70.2067C37.8812 73.8725 40.5502 77.0055 43.8988 79.2696C47.2473 81.5337 51.1491 82.8434 55.1855 83.0583C59.2219 83.2733 63.2407 82.3853 66.8107 80.4896C70.3807 78.594 73.3674 75.7621 75.4502 72.2979C77.533 68.8338 78.6334 64.8679 78.6334 60.8258L105.886 60.8258Z"/>
</mask>
<path d="M105.886 60.8258C105.886 69.8156 103.438 78.6358 98.8059 86.3404C94.1736 94.0449 87.5313 100.343 79.5913 104.559C71.6514 108.775 62.7135 110.75 53.7364 110.272C44.7593 109.794 36.0816 106.881 28.6343 101.846C21.187 96.8102 15.2511 89.8423 11.4632 81.6894C7.67534 73.5366 6.17846 64.5063 7.13316 55.5673C8.08785 46.6283 11.4581 38.1178 16.8824 30.9488C22.3066 23.7798 29.5803 18.2228 37.923 14.8738L48.0753 40.1643C44.3241 41.6701 41.0536 44.1687 38.6147 47.3921C36.1758 50.6155 34.6604 54.4421 34.2312 58.4614C33.8019 62.4807 34.4749 66.541 36.1781 70.2067C37.8812 73.8725 40.5502 77.0055 43.8988 79.2696C47.2473 81.5337 51.1491 82.8434 55.1855 83.0583C59.2219 83.2733 63.2407 82.3853 66.8107 80.4896C70.3807 78.594 73.3674 75.7621 75.4502 72.2979C77.533 68.8338 78.6334 64.8679 78.6334 60.8258L105.886 60.8258Z" fill="#C4C4C4" stroke="#919191" stroke-width="16" mask="url(#path-1-inside-1)"/>
<path d="M68.514 30.957L81.3654 38.9428L46.9891 81.4062L38.171 75.5158L68.514 30.957Z" fill="url(#paint0_linear)"/>
<path d="M87.3654 16.6524C88.0774 16.3421 88.8644 16.8697 88.7954 17.611L85.4402 53.6401C85.3701 54.393 84.4721 54.8021 83.8286 54.3743L52.4178 33.4923C51.7715 33.0626 51.873 32.116 52.5994 31.7995L87.3654 16.6524Z" fill="#4DA5EE"/>
<path d="M84.1685 21.8586C84.8881 21.5449 85.6809 22.0867 85.5969 22.8348L82.8046 47.712C82.7213 48.4541 81.8356 48.8505 81.1984 48.4309L59.5815 34.1948C58.9316 33.7668 59.0311 32.8171 59.7592 32.4997L84.1685 21.8586Z" fill="#4DA5EE"/>
<defs>
<linearGradient id="paint0_linear" x1="75.088" y1="34.7496" x2="44.8686" y2="79.9897" gradientUnits="userSpaceOnUse">
<stop stop-color="#919191"/>
<stop offset="0.296875" stop-color="#4DA5EE"/>
</linearGradient>
</defs>
</svg>
